<?xml version="1.0" standalone="no"?>
<!DOCTYPE svg PUBLIC "-//W3C//DTD SVG 20010904//EN"
 "http://www.w3.org/TR/2001/REC-SVG-20010904/DTD/svg10.dtd">
<svg version="1.0" xmlns="http://www.w3.org/2000/svg"
 width="500.000000pt" height="500.000000pt" viewBox="0 0 500.000000 500.000000"
 preserveAspectRatio="xMidYMid meet">
<metadata>
Created by potrace 1.14, written by Peter Selinger 2001-2017
</metadata>
<g transform="translate(0.000000,500.000000) scale(0.100000,-0.100000)"
fill="#000000" stroke="none">
<path d="M3034 4542 c-8 -5 -14 -91 -19 -264 -5 -156 -12 -265 -19 -279 -9
-18 -144 -109 -162 -109 -2 0 -4 59 -4 130 0 102 -3 132 -14 136 -12 4 -915
-510 -1000 -569 -24 -17 -34 -19 -57 -10 l-29 11 -2 -170 -3 -170 -179 -104
c-98 -57 -182 -104 -186 -104 -4 0 -65 34 -136 75 -71 41 -134 75 -141 75 -7
0 -92 -47 -190 -104 l-178 -103 -1 -62 c-1 -34 -4 -64 -8 -68 -3 -3 -6 -12 -6
-18 0 -7 122 -83 270 -169 158 -93 270 -164 270 -173 0 -27 50 -2 265 130 50
30 92 53 94 51 9 -9 -28 -34 -192 -127 l-167 -96 -264 154 c-146 85 -267 155
-270 155 -12 0 -5 -40 7 -40 6 0 4 -5 -6 -11 -9 -5 -17 -21 -17 -35 0 -18 -9
-30 -31 -42 -86 -47 -110 -92 -70 -129 24 -22 1105 -647 1157 -669 26 -11 58
-15 99 -12 58 4 77 14 530 275 449 259 523 300 500 275 -16 -18 -938 -548
-975 -560 -43 -15 -96 -15 -142 2 -29 11 -1041 589 -1124 643 -21 13 -22 13
-17 -29 4 -38 -88 -1023 -103 -1105 -8 -44 18 -55 51 -22 21 22 29 66 89 484
84 579 75 527 95 520 9 -3 88 -48 176 -99 88 -51 298 -173 467 -270 l307 -177
27 -56 c29 -58 42 -160 44 -325 0 -70 -3 -82 -30 -120 -50 -73 -87 -275 -89
-483 l0 -90 32 0 c32 0 32 0 35 -55 4 -92 6 -95 86 -139 40 -23 83 -41 95 -41
12 0 48 13 80 29 85 44 313 170 329 184 12 9 13 32 8 112 -4 59 -2 133 4 180
10 66 9 81 -3 90 -20 14 -31 54 -18 68 14 18 -28 274 -51 303 -13 18 -123 37
-169 30 -22 -4 -63 -18 -89 -31 -27 -14 -52 -25 -55 -25 -3 0 -5 49 -5 108 0
114 14 178 53 237 15 22 143 101 479 294 253 145 467 265 476 266 10 2 42 -24
81 -66 l65 -69 -45 16 c-24 9 -84 18 -134 21 -153 8 -188 -26 -205 -198 -13
-126 -38 -237 -87 -386 -35 -108 -39 -113 -65 -113 -21 0 -26 -4 -21 -16 7
-19 -31 -53 -59 -54 -26 0 -22 15 12 43 17 14 30 28 30 31 0 12 -42 6 -71 -10
-35 -18 -48 -12 -29 12 29 34 -46 48 -79 15 -21 -21 -18 -50 8 -99 18 -34 91
-90 139 -106 24 -9 60 -28 79 -42 41 -31 111 -54 165 -54 62 0 88 33 88 113 0
45 4 66 13 70 8 3 20 34 27 69 20 99 39 148 81 209 21 32 41 75 45 98 l7 41
28 -17 c31 -18 35 -28 19 -38 -17 -11 -11 -48 16 -94 34 -61 26 -101 -21 -101
-18 0 -38 -7 -45 -15 -14 -17 -40 -20 -40 -6 0 6 5 13 10 16 20 12 9 26 -17
23 -27 -3 -28 -5 -27 -57 2 -47 6 -57 40 -93 22 -22 62 -51 89 -65 44 -23 107
-81 163 -152 16 -20 24 -23 54 -17 47 9 88 41 83 66 -3 16 14 10 108 -36 l112
-56 40 17 40 17 -65 32 c-36 17 -90 42 -120 55 l-55 24 65 14 c62 14 68 13
130 -9 63 -22 65 -24 70 -63 5 -36 9 -41 51 -58 41 -17 49 -18 75 -6 16 8 33
23 38 34 5 12 39 33 80 51 l71 31 28 -23 c38 -32 86 -32 117 1 28 30 20 44
-15 25 -28 -15 -30 -14 -39 15 -5 17 7 27 77 63 109 57 174 113 203 176 29 62
29 74 5 218 -24 142 -36 314 -22 323 10 6 12 1 28 -85 7 -37 12 -46 32 -48 13
-2 27 0 31 5 4 4 -1 89 -11 188 -13 120 -17 211 -13 274 l7 93 -44 -44 c-60
-59 -150 -117 -304 -193 -162 -80 -238 -110 -233 -93 2 7 95 60 206 118 200
105 375 216 368 235 -2 6 -9 9 -15 7 -6 -1 -11 1 -11 5 0 5 -11 121 -25 258
-28 278 -30 328 -15 356 6 10 9 19 6 19 -2 0 -79 -43 -170 -96 -91 -53 -170
-94 -176 -92 -6 2 67 48 162 102 95 54 183 108 196 119 30 27 28 58 -5 89 -28
25 -1061 625 -1137 659 -22 10 -58 19 -78 19 l-38 0 0 195 c0 150 3 195 13
195 26 -1 426 -127 441 -139 21 -18 93 -26 109 -13 7 6 18 7 25 3 9 -6 6 -19
-14 -54 -21 -38 -26 -61 -26 -117 -1 -81 18 -120 57 -120 l25 0 -19 38 c-24
48 -35 130 -22 164 7 18 21 30 38 34 39 10 82 32 126 66 43 35 47 48 12 48
-19 0 -29 9 -42 36 -17 34 -19 36 -58 29 -22 -3 -52 -17 -66 -31 l-27 -25 -43
30 c-25 17 -62 32 -84 35 -71 8 -388 108 -434 138 -49 31 -51 31 -67 20z m325
-157 c85 -25 157 -48 160 -50 15 -15 -18 -9 -134 26 -71 22 -154 46 -182 55
-29 8 -53 19 -53 24 0 5 12 5 28 0 15 -5 97 -30 181 -55z m-114 -460 c44 -24
296 -169 560 -322 511 -297 531 -311 489 -353 -11 -12 -106 -70 -209 -130
-143 -83 -192 -107 -202 -98 -21 17 -15 82 13 132 16 29 28 68 31 104 5 52 2
61 -28 106 -23 33 -55 62 -98 88 -62 36 -69 38 -160 40 -112 2 -188 6 -216 10
-17 3 -20 -2 -17 -29 1 -18 -2 -33 -8 -33 -17 0 -11 -30 11 -61 17 -24 18 -29
5 -29 -21 0 -20 -16 3 -39 10 -10 20 -30 23 -45 4 -22 0 -30 -23 -42 -16 -8
-29 -20 -29 -27 0 -18 50 -64 74 -69 13 -2 26 -22 40 -60 27 -72 38 -83 83
-83 53 0 62 -21 39 -89 -16 -47 -25 -58 -66 -80 -47 -26 -49 -26 -151 -15 -57
6 -104 12 -104 13 -5 16 -65 83 -89 97 -49 30 -69 26 -166 -34 -21 -13 -30
-15 -23 -6 10 12 8 17 -9 28 -17 11 -26 10 -54 -5 -21 -12 -32 -24 -29 -33 4
-9 0 -12 -13 -9 -11 3 -27 1 -36 -4 -11 -6 -21 -4 -32 6 -17 18 -42 20 -64 6
-23 -14 18 -42 42 -29 13 7 25 5 42 -7 15 -9 34 -13 48 -9 23 6 23 6 3 -10
-17 -14 -18 -17 -5 -25 19 -12 41 -12 60 0 16 10 15 11 -15 29 -18 11 -18 12
5 6 14 -4 36 -7 50 -7 l24 0 -24 -18 -23 -18 21 -11 c11 -6 28 -8 36 -5 9 3
16 2 16 -4 0 -5 16 -16 35 -24 l35 -14 -89 -52 c-49 -29 -97 -52 -107 -52 -17
0 -16 1 1 14 18 13 18 14 -3 25 -16 8 -28 9 -41 1 -30 -15 -76 -32 -68 -24 10
10 -12 34 -33 34 -10 0 -23 -6 -29 -14 -10 -11 -8 -17 6 -25 10 -6 14 -10 8
-11 -5 0 -16 4 -24 9 -9 6 -23 5 -38 -2 -21 -9 -22 -12 -8 -27 21 -23 12 -41
-37 -69 l-41 -24 24 -12 c16 -9 29 -10 42 -3 16 8 37 4 26 -6 -2 -2 -84 -49
-181 -106 l-178 -102 -165 96 c-90 53 -167 96 -171 96 -3 0 -4 -6 -1 -14 3 -8
1 -17 -6 -19 -7 -2 -10 -6 -7 -9 16 -14 342 -198 351 -198 7 0 99 52 205 115
106 63 197 115 202 115 12 0 57 -49 50 -55 -7 -7 -866 -504 -912 -527 -31 -16
-52 -19 -92 -15 -46 5 -118 43 -609 327 -315 183 -563 333 -571 346 -11 16
-13 28 -5 42 13 25 40 46 48 38 4 -3 -2 -13 -13 -20 -10 -8 -17 -17 -14 -19 5
-5 516 -304 557 -326 19 -10 29 -8 63 14 l41 26 53 -31 c63 -36 66 -36 66 -9
0 18 5 21 30 17 43 -6 37 3 -20 35 -28 16 -50 30 -50 31 0 2 59 38 130 81 72
43 130 79 130 81 0 11 -63 35 -69 26 -10 -16 -231 -142 -231 -132 0 9 89 69
183 123 30 18 47 35 47 47 0 10 5 22 11 26 6 3 9 15 6 25 -3 10 -1 22 4 25 13
8 11 134 -2 134 -6 0 -8 8 -4 19 3 11 2 22 -4 25 -5 3 -71 -31 -147 -75 -172
-100 -194 -112 -194 -101 0 4 25 20 57 36 31 15 93 50 137 78 45 28 91 57 104
65 12 7 22 21 22 30 0 9 7 21 17 28 9 7 13 17 9 23 -4 6 -52 37 -106 68 -55
31 -100 59 -100 63 0 8 320 194 326 189 2 -2 4 -123 4 -269 l1 -264 -41 -26
-42 -26 81 -47 c44 -25 83 -46 86 -46 4 0 238 138 521 307 l515 306 -49 29
-50 28 -158 -93 c-88 -51 -244 -141 -349 -201 -104 -59 -246 -141 -315 -182
-68 -41 -129 -73 -135 -71 -5 2 -11 15 -13 29 -3 23 22 39 325 213 180 104
416 239 523 301 l195 112 5 273 5 273 55 33 c30 18 58 33 63 33 16 0 5 -16
-21 -31 -16 -9 -36 -32 -45 -51 -36 -76 -11 -150 65 -190 60 -32 184 -32 245
0 71 37 100 101 77 168 -17 50 -55 81 -126 101 -50 14 -58 20 -58 41 0 23 3
24 38 17 20 -3 73 -26 117 -50z m-705 -472 l0 -198 -48 -26 c-26 -15 -161 -92
-299 -172 l-253 -146 0 198 0 198 293 171 c160 94 295 171 300 171 4 1 7 -88
7 -196z m1705 -683 c19 -135 37 -249 39 -255 3 -12 -17 -27 -106 -83 l-68 -42
22 52 c11 29 28 78 37 109 9 30 24 63 34 73 17 17 23 69 11 100 -5 13 -9 14
-20 5 -11 -9 -14 -6 -14 14 0 14 7 30 15 34 30 17 -8 145 -54 187 l-22 20 38
23 c21 12 41 19 44 15 4 -4 24 -117 44 -252z m-271 211 c10 -15 -41 -61 -91
-82 -84 -36 -316 -120 -324 -117 -18 6 11 26 121 83 102 52 263 123 282 125 4
0 9 -4 12 -9z m-1548 -40 c-7 -10 -270 -161 -282 -161 -18 0 21 26 143 95 126
72 150 84 139 66z m827 -241 c7 -6 20 -16 29 -23 16 -10 1 -22 -116 -89 -74
-43 -139 -78 -144 -78 -4 0 -18 13 -30 30 l-22 29 118 70 c117 71 142 80 165
61z m-52 -145 c-91 -52 -167 -92 -170 -89 -3 3 1 9 9 14 214 127 289 168 305
169 11 1 -54 -42 -144 -94z m210 -116 c32 -31 83 -69 114 -85 30 -16 55 -32
55 -36 0 -37 -88 11 -176 95 -64 60 -73 66 -79 48 -4 -12 -24 -26 -54 -36 -53
-17 -88 -49 -99 -89 l-7 -26 -43 38 -44 37 134 76 c121 70 133 75 136 56 2
-12 30 -47 63 -78z m-2142 -120 c-9 -5 -15 -4 -18 2 -2 6 3 15 10 20 9 5 15 4
18 -2 2 -6 -3 -15 -10 -20z m1998 -675 c-3 -3 -12 -4 -19 -1 -8 3 -5 6 6 6 11
1 17 -2 13 -5z m-237 -114 c0 -5 -7 -10 -16 -10 -8 0 -12 5 -9 10 3 6 10 10
16 10 5 0 9 -4 9 -10z m354 -98 c7 2 45 -13 86 -32 l75 -34 -75 -12 c-123 -20
-117 -22 -130 43 -7 32 -15 64 -18 71 -2 7 8 2 23 -12 16 -15 33 -25 39 -24z
m-157 -29 c-3 -3 -11 -2 -17 2 -9 6 -9 10 1 16 14 8 27 -7 16 -18z m14 -100
c13 -16 12 -17 -3 -4 -17 13 -22 21 -14 21 2 0 10 -8 17 -17z m-960 -367 c-12
-15 -289 -131 -296 -124 -3 3 271 126 304 137 2 0 -2 -5 -8 -13z"/>
<path d="M3255 3109 c-8 -12 -9 -11 29 -27 38 -17 62 1 32 24 -23 17 -52 18
-61 3z"/>
<path d="M3210 3022 c0 -5 16 -27 36 -50 63 -74 169 -88 231 -30 24 22 31 62
13 73 -5 3 -10 -1 -10 -9 0 -23 -41 -46 -83 -46 -21 0 -60 11 -88 25 -67 35
-99 46 -99 37z"/>
<path d="M2873 2953 c-7 -2 -13 -9 -13 -14 0 -15 36 -10 50 6 10 12 9 15 -6
14 -11 0 -25 -3 -31 -6z"/>
<path d="M2906 2928 c-18 -10 -18 -11 4 -23 31 -17 76 0 59 22 -14 16 -37 16
-63 1z"/>
<path d="M2816 2917 c-17 -13 -16 -15 20 -36 32 -19 42 -21 63 -11 25 11 25
12 6 26 -11 8 -25 12 -32 9 -7 -3 -21 -8 -30 -11 -17 -5 -17 -5 0 6 9 6 15 15
12 21 -8 12 -18 11 -39 -4z"/>
<path d="M2751 2881 c-7 -5 -10 -14 -7 -20 8 -13 46 3 46 19 0 12 -20 13 -39
1z"/>
<path d="M2690 2845 c-23 -12 -23 -14 -7 -21 11 -4 24 -1 34 8 21 21 3 29 -27
13z"/>
<path d="M2735 2826 c-18 -13 -18 -14 3 -25 17 -9 27 -9 44 0 21 11 21 12 3
25 -10 8 -22 14 -25 14 -3 0 -15 -6 -25 -14z"/>
<path d="M2625 2807 c-12 -9 -14 -16 -7 -21 12 -7 52 13 52 26 0 12 -24 9 -45
-5z"/>
<path d="M2816 2807 c-17 -12 -16 -14 6 -24 18 -8 30 -8 48 2 l23 13 -21 11
c-27 14 -34 14 -56 -2z"/>
<path d="M2670 2790 c-13 -9 -13 -11 0 -20 8 -6 26 -9 40 -6 14 2 34 -2 44
-10 25 -18 37 -18 61 0 18 13 18 14 -3 25 -16 9 -28 9 -42 1 -16 -9 -24 -7
-36 5 -18 17 -42 19 -64 5z"/>
<path d="M2563 2773 c-7 -2 -13 -9 -13 -14 0 -14 24 -11 46 6 19 14 19 14 -1
14 -11 0 -26 -3 -32 -6z"/>
<path d="M2865 2766 c-18 -13 -18 -14 3 -25 17 -9 27 -9 44 0 21 11 21 12 3
25 -10 8 -22 14 -25 14 -3 0 -15 -6 -25 -14z"/>
<path d="M2611 2756 c-18 -22 21 -41 51 -25 21 11 21 12 3 25 -24 18 -40 18
-54 0z"/>
<path d="M2950 2750 c-13 -9 -13 -11 0 -20 8 -5 22 -10 30 -10 8 0 22 5 30 10
13 9 13 11 0 20 -8 5 -22 10 -30 10 -8 0 -22 -5 -30 -10z"/>
<path d="M2507 2739 c-26 -15 -11 -30 18 -17 13 6 22 15 19 19 -7 11 -15 11
-37 -2z"/>
<path d="M2700 2740 c-13 -9 -13 -12 3 -25 25 -18 73 0 56 22 -13 15 -38 17
-59 3z"/>
<path d="M2813 2737 c-28 -12 -29 -24 -3 -32 23 -7 60 2 60 15 0 18 -34 28
-57 17z"/>
<path d="M2555 2724 c-17 -13 -18 -16 -5 -25 8 -5 27 -7 41 -5 15 3 35 -1 45
-9 24 -18 36 -18 59 -1 19 14 19 15 -7 27 -22 9 -31 9 -42 0 -12 -10 -19 -8
-35 8 -25 25 -30 25 -56 5z"/>
<path d="M3030 2725 l-23 -12 21 -12 c27 -14 34 -14 56 2 17 12 16 14 -6 24
-18 8 -30 8 -48 -2z"/>
<path d="M2895 2716 c-18 -13 -18 -14 3 -25 17 -9 27 -9 44 0 21 11 21 12 3
25 -10 8 -22 14 -25 14 -3 0 -15 -6 -25 -14z"/>
<path d="M2443 2703 c-7 -2 -13 -9 -13 -14 0 -14 24 -11 46 6 19 14 19 14 -1
14 -11 0 -26 -3 -32 -6z"/>
<path d="M2747 2699 c-18 -10 -18 -12 2 -25 16 -11 26 -12 41 -4 24 13 26 26
4 34 -21 8 -26 7 -47 -5z"/>
<path d="M2495 2686 c-18 -13 -18 -14 3 -25 30 -16 69 3 51 25 -14 18 -30 18
-54 0z"/>
<path d="M2966 2687 c-17 -12 -16 -14 6 -24 18 -8 30 -8 48 2 l23 13 -21 11
c-27 14 -34 14 -56 -2z"/>
<path d="M2587 2678 c-23 -12 -21 -25 3 -33 22 -7 60 2 60 14 0 15 -46 29 -63
19z"/>
<path d="M2830 2680 c-13 -9 -13 -11 0 -20 8 -5 22 -10 30 -10 8 0 22 5 30 10
13 9 13 11 0 20 -8 5 -22 10 -30 10 -8 0 -22 -5 -30 -10z"/>
<path d="M2381 2665 c-15 -8 -20 -15 -13 -19 7 -4 23 -1 38 7 19 10 23 15 12
19 -8 3 -25 0 -37 -7z"/>
<path d="M2687 2665 c-18 -13 -18 -14 3 -25 22 -12 60 -5 60 10 0 8 -32 31
-42 30 -2 0 -11 -7 -21 -15z"/>
<path d="M2437 2656 c-15 -12 -15 -15 -2 -26 16 -13 65 -6 65 10 0 8 -32 31
-42 30 -2 0 -11 -7 -21 -14z"/>
<path d="M2525 2636 c-18 -13 -18 -14 3 -25 17 -9 27 -9 44 0 21 11 21 12 3
25 -10 8 -22 14 -25 14 -3 0 -15 -6 -25 -14z"/>
<path d="M2317 2629 c-26 -15 -10 -30 18 -17 26 12 34 28 13 28 -7 0 -21 -5
-31 -11z"/>
<path d="M2626 2627 c-17 -12 -16 -14 7 -24 20 -9 29 -9 44 2 16 13 16 16 3
25 -20 13 -33 13 -54 -3z"/>
<path d="M2377 2619 c-18 -10 -18 -12 2 -25 16 -11 26 -12 41 -4 24 13 26 26
4 34 -21 8 -26 7 -47 -5z"/>
<path d="M2460 2600 c-13 -9 -13 -11 0 -20 8 -5 22 -10 30 -10 8 0 22 5 30 10
13 9 13 11 0 20 -8 5 -22 10 -30 10 -8 0 -22 -5 -30 -10z"/>
<path d="M2565 2596 c-19 -14 -19 -15 6 -26 21 -9 32 -9 49 0 l23 13 -24 13
c-30 17 -31 17 -54 0z"/>
<path d="M2253 2593 c-7 -2 -13 -9 -13 -14 0 -14 24 -11 46 6 19 14 19 14 -1
14 -11 0 -26 -3 -32 -6z"/>
<path d="M2315 2586 c-19 -14 -19 -15 7 -27 22 -10 31 -9 44 2 14 12 14 14 -2
26 -22 16 -26 16 -49 -1z"/>
<path d="M2401 2566 c-18 -21 21 -41 50 -26 16 9 18 14 8 26 -6 8 -19 14 -29
14 -10 0 -23 -6 -29 -14z"/>
<path d="M2195 2557 c-13 -10 -15 -16 -6 -21 6 -4 18 -2 26 4 11 9 18 9 30 -4
19 -18 43 -20 65 -6 13 9 13 11 0 20 -8 6 -27 8 -42 6 -15 -3 -30 -1 -33 4 -8
13 -18 13 -40 -3z"/>
<path d="M2503 2563 c-20 -7 -15 -19 11 -31 19 -8 28 -7 43 3 16 13 16 16 3
25 -16 10 -37 12 -57 3z"/>
<path d="M2598 2546 c-13 -10 -15 -15 -6 -24 16 -16 43 -15 57 2 10 12 8 17
-8 25 -24 13 -22 13 -43 -3z"/>
<path d="M2348 2539 c-10 -5 -18 -14 -18 -19 0 -15 38 -22 60 -10 21 11 21 12
3 25 -22 17 -23 17 -45 4z"/>
<path d="M2445 2526 c-18 -13 -18 -14 4 -26 19 -10 28 -9 47 1 22 11 22 13 6
25 -22 17 -34 17 -57 0z"/>
<path d="M2133 2523 c-7 -2 -13 -9 -13 -14 0 -14 24 -11 46 6 19 14 19 14 -1
14 -11 0 -26 -3 -32 -6z"/>
<path d="M2195 2516 c-18 -13 -18 -14 3 -25 17 -9 27 -9 44 0 17 9 23 9 26 0
7 -21 41 -32 63 -21 17 9 18 14 8 27 -8 9 -23 13 -38 10 -14 -3 -37 1 -51 8
-31 18 -32 18 -55 1z"/>
<path d="M2536 2507 c-17 -12 -16 -14 7 -24 20 -9 29 -9 44 2 16 13 16 16 3
25 -20 13 -33 13 -54 -3z"/>
<path d="M2392 2496 c-21 -11 -22 -14 -8 -25 17 -14 66 -7 66 9 0 19 -35 29
-58 16z"/>
<path d="M2067 2486 c-23 -18 -5 -31 22 -16 28 14 39 12 18 -5 -18 -13 -18
-14 3 -25 18 -10 29 -9 56 6 19 10 34 22 34 26 0 15 -35 26 -53 17 -11 -6 -24
-6 -36 1 -24 12 -22 12 -44 -4z"/>
<path d="M2475 2476 c-19 -14 -19 -15 7 -27 22 -10 31 -9 44 2 14 12 14 14 -2
26 -22 16 -26 16 -49 -1z"/>
<path d="M2591 2471 l-24 -19 21 -11 c17 -9 28 -8 54 5 l32 16 -25 14 c-31 17
-30 17 -58 -5z"/>
<path d="M2227 2469 c-14 -8 -16 -14 -6 -25 15 -18 43 -18 58 0 10 12 8 17 -8
25 -23 13 -21 13 -44 0z"/>
<path d="M2327 2459 c-18 -10 -18 -12 2 -25 16 -11 25 -12 41 -4 16 9 24 8 36
-5 18 -17 42 -19 64 -5 13 9 13 11 0 20 -8 6 -26 9 -40 6 -14 -2 -34 2 -44 10
-23 17 -35 17 -59 3z"/>
<path d="M1750 2418 c-30 -18 -49 -25 -42 -16 17 22 0 31 -24 13 -16 -12 -17
-16 -5 -24 11 -7 4 -14 -28 -30 -24 -13 -39 -26 -35 -32 3 -6 -5 -4 -19 6 -26
16 -26 16 -25 -14 1 -28 12 -36 187 -137 102 -59 189 -109 194 -111 12 -7 228
128 222 138 -7 10 -9 9 -117 -55 -44 -26 -75 -39 -71 -30 4 12 0 14 -18 9 -14
-3 -32 0 -44 9 -12 9 -15 15 -7 16 14 0 205 110 200 115 -8 8 -302 175 -307
175 -3 0 -31 -15 -61 -32z"/>
<path d="M2160 2430 c-17 -10 -5 -22 56 -55 32 -17 34 -17 80 10 l47 28 -24
13 c-21 11 -29 10 -66 -12 -46 -27 -69 -32 -38 -8 17 13 18 16 5 24 -19 12
-41 12 -60 0z"/>
<path d="M2520 2430 c-13 -9 -13 -11 0 -20 8 -5 22 -10 30 -10 8 0 22 5 30 10
13 9 13 11 0 20 -8 5 -22 10 -30 10 -8 0 -22 -5 -30 -10z"/>
<path d="M2317 2386 c-59 -34 -59 -34 -36 -50 19 -13 26 -14 43 -3 12 7 38 24
60 37 36 22 37 24 20 37 -23 17 -19 18 -87 -21z"/>
<path d="M2465 2365 c-43 -27 -72 -34 -41 -10 23 17 1 21 -24 5 -13 -9 -13
-11 0 -20 21 -14 46 -12 62 3 7 8 26 17 41 21 15 3 27 11 27 16 0 16 -23 11
-65 -15z"/>
<path d="M2360 2305 c-10 -12 -10 -15 3 -15 23 0 47 11 47 21 0 15 -37 10 -50
-6z"/>
<path d="M2040 2210 c-9 -6 -10 -10 -3 -10 6 0 15 5 18 10 8 12 4 12 -15 0z"/>
<path d="M2380 3521 l-85 -48 -3 -78 c-2 -42 1 -75 5 -73 4 1 45 23 90 48 l83
45 0 78 c0 42 -1 77 -2 77 -2 0 -41 -22 -88 -49z"/>
<path d="M2140 3342 c-62 -35 -86 -54 -88 -70 -2 -12 0 -22 5 -22 4 0 46 22
93 48 62 35 86 54 88 70 2 12 0 22 -5 22 -4 0 -46 -22 -93 -48z"/>
<path d="M2375 3336 l-90 -52 -3 -83 -3 -82 23 12 c13 6 58 32 101 56 l77 45
0 79 c0 43 -3 79 -7 79 -5 -1 -48 -25 -98 -54z"/>
<path d="M2142 3253 c-77 -42 -103 -65 -89 -79 3 -3 46 16 96 43 61 32 91 54
91 66 0 9 -3 17 -7 17 -5 -1 -45 -21 -91 -47z"/>
<path d="M2140 3171 c-62 -35 -86 -55 -88 -71 -4 -22 -2 -22 55 10 32 19 75
43 95 54 21 12 38 29 38 39 0 9 -3 17 -7 17 -5 0 -46 -22 -93 -49z"/>
<path d="M3785 1150 c-3 -5 -3 -20 0 -33 6 -22 14 -25 73 -31 126 -13 437 -66
485 -83 54 -19 80 -11 85 26 3 17 -2 21 -27 21 -17 0 -68 9 -113 19 -155 36
-438 91 -467 91 -17 0 -32 -4 -36 -10z"/>
<path d="M3660 1140 c0 -5 -6 -7 -13 -4 -18 6 -120 -30 -354 -126 -170 -70
-203 -87 -204 -104 -1 -19 -1 -19 -7 2 -4 13 -11 23 -17 23 -15 0 -18 -40 -5
-56 7 -9 8 -15 0 -20 -5 -3 -10 -25 -10 -49 0 -78 69 -112 127 -62 32 27 28
41 -8 28 -21 -8 -28 -4 -55 33 l-32 43 39 12 c21 7 39 19 39 25 0 6 12 17 28
24 73 34 336 130 397 146 39 9 73 22 77 29 5 7 8 3 8 -9 0 -11 29 -110 63
-220 65 -205 76 -225 112 -195 22 18 19 39 -4 33 -27 -7 -32 6 -85 212 -60
230 -65 245 -82 245 -8 0 -14 -4 -14 -10z"/>
<path d="M4352 958 c-17 -17 -15 -49 4 -76 35 -51 89 -51 125 0 l22 30 -33
-17 c-34 -17 -49 -10 -50 23 0 13 -35 52 -48 52 -4 0 -13 -5 -20 -12z"/>
<path d="M3786 619 c-16 -24 -8 -59 21 -91 29 -32 91 -19 114 24 12 22 14 22
-36 2 -11 -4 -20 4 -30 30 -20 48 -49 63 -69 35z"/>
</g>
</svg>
